<svg width="109" height="11" viewBox="0 0 109 11" fill="none" xmlns="http://www.w3.org/2000/svg">
<path opacity="0.7" d="M0.364 6.332V4.904H10.738V6.332H0.364ZM26.5216 0.116C27.2029 0.116 27.7956 0.213999 28.2996 0.409999C28.8036 0.605999 29.2749 0.904666 29.7136 1.306L28.8036 2.356C28.4582 2.06667 28.1082 1.85667 27.7536 1.726C27.4082 1.59533 27.0349 1.53 26.6336 1.53C26.1856 1.53 25.8216 1.63267 25.5416 1.838C25.2709 2.034 25.1356 2.314 25.1356 2.678C25.1356 2.92067 25.1869 3.12133 25.2896 3.28C25.4016 3.43867 25.5976 3.588 25.8776 3.728C26.1576 3.868 26.5729 4.022 27.1236 4.19C28.0756 4.48867 28.7896 4.862 29.2656 5.31C29.7509 5.74867 29.9936 6.39267 29.9936 7.242C29.9936 7.82067 29.8442 8.334 29.5456 8.782C29.2562 9.23 28.8362 9.58 28.2856 9.832C27.7349 10.084 27.0816 10.21 26.3256 10.21C25.5882 10.21 24.9256 10.0933 24.3376 9.86C23.7589 9.61733 23.2596 9.29067 22.8396 8.88L23.7916 7.816C24.1649 8.13333 24.5522 8.376 24.9536 8.544C25.3549 8.70267 25.7982 8.782 26.2836 8.782C26.8156 8.782 27.2449 8.656 27.5716 8.404C27.8982 8.152 28.0616 7.79733 28.0616 7.34C28.0616 7.06 28.0056 6.83133 27.8936 6.654C27.7816 6.46733 27.5902 6.304 27.3196 6.164C27.0489 6.01467 26.6569 5.86067 26.1436 5.702C25.1169 5.38467 24.3749 5.002 23.9176 4.554C23.4602 4.106 23.2316 3.518 23.2316 2.79C23.2316 2.258 23.3716 1.79133 23.6516 1.39C23.9316 0.988666 24.3189 0.675999 24.8136 0.451999C25.3176 0.228 25.8869 0.116 26.5216 0.116ZM41.1835 0.325999L40.9875 1.698H37.4175V4.4H40.5255V5.772H37.4175V8.614H41.2395V10H35.5695V0.325999H41.1835ZM50.0174 6.122H48.8414V10H46.9934V0.325999H49.8774C52.4347 0.325999 53.7134 1.27333 53.7134 3.168C53.7134 3.812 53.5547 4.344 53.2374 4.764C52.92 5.184 52.4254 5.52467 51.7534 5.786L54.2874 10H52.1594L50.0174 6.122ZM48.8414 4.792H49.9894C50.5774 4.792 51.0207 4.666 51.3194 4.414C51.6274 4.15267 51.7814 3.73733 51.7814 3.168C51.7814 2.64533 51.6227 2.26733 51.3054 2.034C50.9974 1.79133 50.5074 1.67 49.8354 1.67H48.8414V4.792ZM66.2606 0.325999L63.3906 10H61.1926L58.2386 0.325999H60.2266L62.3266 8.362L64.3706 0.325999H66.2606ZM73.1929 0.325999V10H71.3449V0.325999H73.1929ZM83.1562 0.116C83.7442 0.116 84.2575 0.2 84.6962 0.368C85.1348 0.536 85.5642 0.792666 85.9842 1.138L85.0462 2.23C84.4768 1.77267 83.8795 1.544 83.2542 1.544C82.5355 1.544 81.9568 1.83333 81.5182 2.412C81.0888 2.99067 80.8742 3.90067 80.8742 5.142C80.8742 6.35533 81.0888 7.256 81.5182 7.844C81.9475 8.432 82.5262 8.726 83.2542 8.726C83.6368 8.726 83.9775 8.66067 84.2762 8.53C84.5748 8.39 84.8922 8.194 85.2282 7.942L86.0962 9.034C85.7695 9.37 85.3542 9.65 84.8502 9.874C84.3555 10.098 83.8002 10.21 83.1842 10.21C82.3442 10.21 81.6022 10.014 80.9582 9.622C80.3142 9.23 79.8148 8.656 79.4602 7.9C79.1055 7.13467 78.9282 6.21533 78.9282 5.142C78.9282 4.08733 79.1102 3.182 79.4742 2.426C79.8475 1.67 80.3515 1.096 80.9862 0.704C81.6302 0.312 82.3535 0.116 83.1562 0.116ZM97.0312 0.325999L96.8352 1.698H93.2652V4.4H96.3732V5.772H93.2652V8.614H97.0872V10H91.4172V0.325999H97.0312ZM105.49 0.116C106.172 0.116 106.764 0.213999 107.268 0.409999C107.772 0.605999 108.244 0.904666 108.682 1.306L107.772 2.356C107.427 2.06667 107.077 1.85667 106.722 1.726C106.377 1.59533 106.004 1.53 105.602 1.53C105.154 1.53 104.79 1.63267 104.51 1.838C104.24 2.034 104.104 2.314 104.104 2.678C104.104 2.92067 104.156 3.12133 104.258 3.28C104.37 3.43867 104.566 3.588 104.846 3.728C105.126 3.868 105.542 4.022 106.092 4.19C107.044 4.48867 107.758 4.862 108.234 5.31C108.72 5.74867 108.962 6.39267 108.962 7.242C108.962 7.82067 108.813 8.334 108.514 8.782C108.225 9.23 107.805 9.58 107.254 9.832C106.704 10.084 106.05 10.21 105.294 10.21C104.557 10.21 103.894 10.0933 103.306 9.86C102.728 9.61733 102.228 9.29067 101.808 8.88L102.76 7.816C103.134 8.13333 103.521 8.376 103.922 8.544C104.324 8.70267 104.767 8.782 105.252 8.782C105.784 8.782 106.214 8.656 106.54 8.404C106.867 8.152 107.03 7.79733 107.03 7.34C107.03 7.06 106.974 6.83133 106.862 6.654C106.75 6.46733 106.559 6.304 106.288 6.164C106.018 6.01467 105.626 5.86067 105.112 5.702C104.086 5.38467 103.344 5.002 102.886 4.554C102.429 4.106 102.2 3.518 102.2 2.79C102.2 2.258 102.34 1.79133 102.62 1.39C102.9 0.988666 103.288 0.675999 103.782 0.451999C104.286 0.228 104.856 0.116 105.49 0.116Z" fill="#222222"/>
</svg>
